<svg height="84" width="251" xmlns="http://www.w3.org/2000/svg" xmlns:xlink="http://www.w3.org/1999/xlink"><linearGradient id="a"><stop offset="0" stop-color="#adc2d6"/><stop offset="1" stop-color="#4e83ae"/></linearGradient><linearGradient id="b" x1="67.989%" x2="23.072%" xlink:href="#a" y1="51.802%" y2="46.705%"/><linearGradient id="c" x1="58.183%" x2="20.051%" xlink:href="#a" y1="49.812%" y2="45.444%"/><g fill="none" fill-rule="evenodd"><g fill-rule="nonzero"><path d="M59.24 58.075c3.543-4.52 7.884-9.093 7.722-22.029-.278-22.175-15.369-31.824-28.729-31.824-12.682 0-27.865 6.86-27.865 28.121 0 14.866 7.717 25.219 17.566 30.304l-1.694 5.68C7.738 63.548.108 48.86.108 35.29.108 20.35 10.408.216 38.774.216c20.736 0 37.543 12.029 38.557 33.449.702 14.83-10.266 24.968-10.266 24.968-3.299-.903-7.825-.558-7.825-.558zM85.13 39.885c0-6.284.05-7.454-.048-8.769-.097-1.461-.486-1.85-1.847-2.24-.34-.098-1.069-.147-1.652-.147-.486 0-.73-.146-.73-.438s.292-.39.924-.39c2.285 0 5.152.098 6.416.098 1.07 0 3.937-.098 5.492-.098.632 0 .924.098.924.39s-.243.438-.681.438c-.486 0-.729.05-1.264.146-1.118.195-1.458.78-1.555 2.241-.098 1.315-.098 2.485-.098 8.769v5.798c0 6.04 1.167 8.378 3.257 10.035 1.896 1.51 3.937 1.656 5.395 1.656 1.847 0 4.035-.536 5.735-2.192 2.382-2.241 2.48-5.846 2.48-10.084v-5.213c0-6.284-.05-7.454-.098-8.769-.097-1.412-.438-1.85-1.798-2.24-.34-.098-1.07-.147-1.556-.147s-.73-.146-.73-.438.292-.39.876-.39c2.187 0 5.055.098 5.103.098.486 0 3.354-.098 5.006-.098.584 0 .875.098.875.39s-.243.438-.73.438c-.486 0-.729.05-1.263.146-1.167.195-1.458.78-1.556 2.241-.048 1.315-.097 2.485-.097 8.769v4.433c0 4.628-.486 9.5-4.083 12.472-3.014 2.533-6.27 2.971-9.04 2.971-2.237 0-6.66-.098-9.77-2.825-2.187-1.9-3.889-4.97-3.889-10.961v-6.09zM123.407 48.751c-.243 0-.292.049-.39.292l-2.284 5.602c-.437 1.023-.631 2.047-.631 2.534 0 .73.388 1.169 1.7 1.169h.633c.535 0 .632.195.632.439 0 .34-.243.438-.68.438-1.41 0-3.403-.147-4.764-.147-.437 0-2.722.147-4.958.147-.535 0-.777-.097-.777-.438 0-.244.145-.44.486-.44.389 0 .875-.048 1.263-.048 1.944-.292 2.674-1.56 3.548-3.653l11.18-25.868c.486-1.17.826-1.656 1.263-1.656.632 0 .827.39 1.264 1.315 1.021 2.29 8.166 19.048 10.888 25.332 1.652 3.751 2.868 4.287 3.646 4.433.631.098 1.117.146 1.603.146.389 0 .583.146.583.439 0 .341-.243.438-1.846.438-1.507 0-4.618 0-8.215-.097-.777-.05-1.263-.05-1.263-.341 0-.243.097-.39.534-.439.291-.048.583-.438.389-.925l-3.305-8.38c-.098-.243-.243-.292-.438-.292zm9.138-2.29c.195 0 .243-.097.195-.243l-4.035-10.376c-.049-.146-.098-.39-.194-.39-.146 0-.195.244-.243.39l-4.132 10.328c-.097.194 0 .292.146.292z" fill="#112b47"/><path d="M156.719 47.192c0 5.31 0 7.941.923 8.72.73.634 2.382.877 5.686.877 2.285 0 3.938-.049 5.007-1.169.535-.536.972-1.705 1.07-2.484.049-.39.145-.634.486-.634.292 0 .388.439.388.926s-.291 3.556-.632 4.774c-.291.926-.486 1.12-2.722 1.12-3.062 0-5.54-.048-7.68-.146-2.138-.048-3.936-.098-5.686-.098-.486 0-1.41.05-2.43.05-1.021.048-2.09.097-2.965.097-.535 0-.826-.147-.826-.438 0-.196.145-.44.68-.44.632 0 1.117-.048 1.507-.145.875-.195 1.118-.975 1.263-2.193.195-1.753.195-5.017.195-8.817v-7.308c0-6.284 0-7.453-.049-8.768-.097-1.413-.486-1.851-1.846-2.241-.34-.098-.875-.146-1.41-.146-.486 0-.729-.146-.729-.438 0-.293.291-.39.923-.39 1.992 0 4.715.097 5.881.097 1.021 0 4.52-.097 6.173-.097.632 0 .924.097.924.39 0 .292-.243.438-.778.438-.486 0-1.167.049-1.653.146-1.166.195-1.506.78-1.604 2.24-.096 1.316-.096 2.485-.096 8.77zM176.085 39.885c0-6.284 0-7.454-.048-8.769-.098-1.412-.535-1.9-1.459-2.192-.486-.146-1.02-.195-1.555-.195-.438 0-.681-.097-.681-.487 0-.243.34-.341 1.021-.341 1.604 0 4.52.098 5.736.098 1.07 0 3.84-.098 5.492-.098.534 0 .875.098.875.341 0 .39-.243.487-.681.487-.437 0-.777.05-1.264.146-1.166.195-1.506.78-1.603 2.241-.098 1.315-.098 2.485-.098 8.769v7.307c0 3.995 0 7.308.195 9.061.145 1.12.437 1.754 1.701 1.949.583.098 1.555.146 2.187.146.486 0 .68.243.68.439 0 .292-.34.438-.826.438-2.819 0-5.736-.146-6.902-.146-.972 0-3.889.146-5.59.146-.534 0-.826-.146-.826-.438 0-.195.145-.439.68-.439.632 0 1.118-.048 1.507-.146.874-.195 1.118-.78 1.264-1.997.194-1.705.194-5.018.194-9.013v-7.307zM250.21 27.9c-.827 0-3.646.098-4.57.098-1.263 0-2.77-.097-4.18-.097-.485 0-.729.097-.729.39 0 .34.389.39.778.487.73.146.924.536.924.926 0 .535-.195 1.266-.633 2.192-.631 1.266-5.832 10.133-6.367 11.107-.729-1.17-6.319-10.863-7.096-12.13-.34-.585-.534-1.072-.534-1.413s.242-.536.582-.633c.681-.196.972-.196.972-.536 0-.293-.242-.39-.631-.39-1.945 0-33.468.097-33.468.097-1.41 0-3.014-.048-4.277-.194-1.07-.147-1.507-.488-1.847-.488-.242 0-.389.244-.486.78-.097.341-.924 4.335-.924 5.018 0 .438.098.682.389.682.292 0 .388-.195.486-.536.097-.292.292-.829.729-1.413.632-.926 1.653-1.218 4.132-1.267l6.367-.146v16.759c0 3.8 0 7.064-.194 8.817-.147 1.218-.39 1.998-1.265 2.192-.34.098-.874.146-1.506.146-.534 0-.68.244-.68.44 0 .291.291.438.826.438 1.701 0 4.617-.147 5.59-.147 1.214 0 4.082.147 6.902.147.486 0 .825-.147.825-.439 0-.195-.194-.439-.68-.439-.631 0-1.603-.048-2.186-.146-1.265-.194-1.162-.974-1.307-2.143-.194-1.802-.243-5.067-.243-8.866V30.499l14.758-.018s.821.981 1.335 1.707c1.507 2.192 8.232 11.303 8.523 11.936.584 1.217.972 2.094.972 4.335v3.41c0 .683 0 2.388-.145 4.14-.098 1.219-.438 1.998-1.313 2.193-.388.098-.924.146-1.506.146-.486 0-.681.243-.681.439 0 .341.34.438.924.438 1.604 0 4.471-.146 5.54-.146 1.167 0 4.035.146 6.708.146.584 0 .924-.146.924-.438 0-.195-.243-.439-.73-.439-.583 0-1.507-.048-2.138-.146-1.264-.195-1.652-.974-1.75-2.192-.097-1.754-.097-3.458-.097-4.14v-3.313c0-1.364-.098-2.63.534-4.14.778-1.755 6.902-11.595 8.312-13.251.923-1.12 1.312-1.51 2.236-1.949.632-.292 1.409-.487 1.846-.487.486 0 .827-.195.827-.487 0-.245-.293-.342-.779-.342z" fill="#112b47"/><path d="M.108 1.082s12.096-2.381 36.073 12.124c10.909 5.304 24.517 7.253 35.101 3.356 0 0-14.364 2.814-37.153-8.443C16.741-.216 16.093-.433.108 1.082z" fill="url(#b)" transform="translate(50.978 59.32)"/><path d="M.297 3.032S9.504.974 34.885 15.262c12.853 6.171 27.433 8.769 49.25 0-16.525 8.985-30.997 13.532-50.222 4.33S8.154 6.388 1.188 5.413z" fill="url(#c)" transform="translate(50.978 59.32)"/></g><path d="M33.813 49.225l-.033-.001c.013.01.021.02.035.03l-.002-.029zM33.05 57.01l-4.825 13.062 11.016-16.02zM46.622 56.974l11.628-8.407-18.36 4.835zM39.53 35.65V53.04l4.32-3.969zM52.064 69.432l-.015-.003.002.008.013-.005z"/><g fill="#e0b846"><path d="M37.925 45.625c-.001.021-.002.042-.006.066l.132-.008-.126-.058zM37.872 48.6l-.035.202.09-.095c-.016-.035-.032-.07-.055-.107zM37.732 43.887l-.038-.49.135-.123-.025-.118-.219.058-.259.296.02.032.317-.25-.032.475a.895.895 0 0 1 .029.17c.024-.017.047-.034.072-.05zM37.846 44.962a.806.806 0 0 1-.172-.109c-.003.098-.002.195.012.289a.352.352 0 0 1 .16-.18zM36.733 45.822l-.005-.013-.081-.027.04.075.046-.035zM36.86 44.515l.012.002-.003.015.066.034.01-.019c-.016-.04-.029-.083-.044-.124l-.04.092zM36.356 46.104c.053-.02.096-.02.133-.001l.028-.223-.112-.02c-.014.081-.033.163-.049.244zM36.813 45.053a.418.418 0 0 0 .036.113l.074-.053a7.726 7.726 0 0 0-.096-.07c-.004.004-.008.007-.014.01zM37.923 47.592l.147.014c.01-.12.029-.242.04-.363a.172.172 0 0 1-.172 0l-.015.35zM37.977 45.044l-.257.226c.018.047.04.092.073.135l.265-.27a8.507 8.507 0 0 1-.081-.09zM36.7 44.81l.048-.18-.018-.02-.005-.02-.015-.178c-.067.118-.133.23-.153.356l.024-.036.12.078zM36.622 45.108l.047-.179-.117-.085c.001.08.02.165.07.264zM37.675 46.238l.067.087.051-.055-.01-.016-.108-.016zM36.95 44.836a.618.618 0 0 1-.115-.106c-.011.051-.016.103-.02.154l.031.02a.268.268 0 0 1 .105-.068zM37.533 44.741l-.02-.016-.01-.024-.054-.205-.012-.002c-.08.223-.155.427-.072.662a.31.31 0 0 0 .08.046.158.158 0 0 1 .062-.026l.03-.368a.156.156 0 0 1-.004-.067zM36.841 46.074l.027-.174-.005-.002-.046.207.06.114.03-.027.008.074a.171.171 0 0 1 .093-.087c.025-.05.05-.09.076-.091a.715.715 0 0 1 .16.015l-.22-.119-.183.09zM36.92 45.35c-.003.016-.007.033-.013.05l.101.012a3.42 3.42 0 0 0-.087-.061zM36.422 47.752c.026-.018.052-.038.081-.06-.007-.028-.014-.057-.026-.088l-.055.148zM36.525 47.346c.02.049.051.1.097.154l-.007-.152-.09-.002zM36.652 46.845l.11.03c.024-.09.054-.18.079-.27a.133.133 0 0 1-.13-.023l-.059.263zM38.034 48.434l-.043-.192-.115.018a.778.778 0 0 0 .158.174zM37.073 45.007c-.003-.019-.008-.037-.012-.055a1.56 1.56 0 0 1-.022-.036l-.091.055.091.06a.969.969 0 0 0 .034-.024zM36.274 47.79l.007-.054-.028.024.021.03zM37.477 47.896l.068.044.013-.039-.036-.081-.045.076zM36.271 47.015l.045.043.016-.028c-.007-.025-.011-.048-.016-.067l-.045.052zM37.117 44.185c.007-.016.016-.031.021-.048.045-.137.102-.207.19-.217l.01-.198-.086-.083-.208.464.043.07.03.012zM30.284 52.758l.066-.025a.224.224 0 0 0-.043-.086l-.066.09c.014.008.03.012.043.021zM29.941 52.464a6.155 6.155 0 0 0-.188-.07.172.172 0 0 1-.042.166l.093.028a.455.455 0 0 0 .137-.124zM29.074 52.37l.031.009.154-.069a3.289 3.289 0 0 1-.033-.04l.096-.004a.228.228 0 0 1-.082-.085c-.073-.008-.133.03-.166.189zM32.19 53.08l-.087.095c.05.012.105.02.168.021l-.08-.116zM27.702 51.927l-.028.014.04.006-.012-.02zM31.723 53.429l.016.039.302.09.05-.139c-.113-.038-.224-.085-.337-.125l-.005.013a.17.17 0 0 1-.026.122zM29.452 53.875a.606.606 0 0 0 .101 0l-.002-.082-.099.082zM26.807 51.916l.015.038.013-.042-.028.004zM29.005 52.96l.059.016c-.005-.013-.003-.024-.005-.035l-.106-.065a.72.72 0 0 0 .052.083zM28.407 52.728a.26.26 0 0 1 .017-.145l-.027-.028-.206.057.216.116zM29.807 53.006l-.023-.038-.128.043.015.029a.75.75 0 0 0 .136-.034zM31.048 53.799c0-.037.005-.07.02-.097l-.116-.024c-.01.022-.017.046-.025.07l.121.05zM37.087 45.501h.013l-.007-.009a.064.064 0 0 1-.006.01zM31.176 53.243a.552.552 0 0 1 .028-.012.203.203 0 0 0-.017-.004l-.011.016zM33.056 54.894l.042-.022c-.022-.008-.045-.014-.067-.02l.025.042zM33.024 54.558c-.022.002-.047.006-.07.01l-.014.025.143.082-.059-.117zM29.112 53.744a.833.833 0 0 0 .18.095l.096-.089a1.91 1.91 0 0 0-.276-.006zM33.156 54.12l.001.001h.002zM32.588 54.454a.763.763 0 0 0 .116-.039l-.026-.067a14.014 14.014 0 0 0-.067-.009l-.023.115zM38.083 45.98l.076.06.099-.135-.105-.083-.07.158zM38.171 45.78c.186.002.238-.12.282-.247l-.232.135-.05.111zM32.57 54.195l-.143-.092-.102.063.082.082c.052-.013.102-.026.162-.043v-.01zM32.686 53.652l-.011.116a.771.771 0 0 0 .207-.111l-.196-.005zM30.674 54.277a.03.03 0 0 0-.004-.003l-.002.007c.1.036.2.079.301.117-.015-.073-.004-.128.027-.17-.092-.028-.186-.058-.278-.085a.664.664 0 0 0-.01.027l.025.028c-.02.025-.04.052-.059.079zM33.12 53.828c-.037.007-.075.013-.116.027l.186.083a8.237 8.237 0 0 1-.07-.11zM38.009 46.146l.051.03.036-.049-.063-.033a5.14 5.14 0 0 1-.024.052zM33.544 54.73a.695.695 0 0 0-.368-.17c.07.065.102.143.112.233l.174.1-.062-.147c.044-.026.094-.024.144-.016zM33.272 53.814c.075.059.116.133.134.221l.132.06.18-.1c-.132-.098-.268-.177-.446-.181zM37.623 48.851l.035.033c0-.024-.003-.047-.005-.07l-.03.037zM49.35 69.23l-.024-.01.026.073.327.291c-.356.048-.618.082-.934.123l.09.213.28.211.018-.047c-.01-.135.063-.245.257-.344l.136.319.337-.162a1.046 1.046 0 0 0-.12-.378zM33.231 48.017l-.145-.006.076.105.07-.1zM27.677 52.108a43.426 43.426 0 0 1-.078-.115l.15.295c.007 0 .014-.004.02-.005a49.68 49.68 0 0 0-.095-.176l.003.001zM47.849 68.556a.39.39 0 0 1 .07-.196c-.057-.02-.114-.045-.17-.062a.705.705 0 0 0 .1.258zM32.428 48.437c.074.003.148.01.222.014a3.192 3.192 0 0 1-.01-.09l.111.072a.556.556 0 0 1 .012-.433l-.431-.017-.148.115.244.339zM48.245 69.945l.005.02.234.168-.073-.232-.166.044zM50.93 69.642l-.27-.166-.171.027.23.336.211-.197zM48.677 69.174c.04.02.085.039.128.057l.002-.015-.132-.123.002.081zM49.28 70.702l.129.093-.055-.161a.288.288 0 0 1-.075.068zM47.961 68.692c.031.032.062.063.102.094l-.026-.14-.066.024a1.647 1.647 0 0 0-.01.022zM31.816 48.768l-.03.041c.038.017.075.038.113.053l-.083-.094zM33.155 48.983a.331.331 0 0 1-.122.198l.255.015a7.027 7.027 0 0 0-.133-.213zM29.137 48.96l.225.013a23.557 23.557 0 0 1-.19-.11 9.57 9.57 0 0 1-.035.098zM29.755 48.487l-.336.02.018.053c.085.099.105.23.053.42l.174.01.293-.386-.202-.117zM31.949 48.27c-.008-.003-.016-.007-.023-.008l-.119.13.092.006.052-.02-.002-.109zM30.301 49.027l.065.003a.375.375 0 0 0-.017-.02c-.015.005-.032.01-.048.017zM37.923 60.293c-.018.025-.033.051-.05.077l.063-.016-.013-.061zM29.743 47.962l.187-.07-.135-.005a.203.203 0 0 1-.06.07l.008.005zM28.687 47.869c-.027.055-.051.11-.077.165.106.067.21.144.315.215-.006-.095.015-.163.056-.21l-.294-.17zM30.073 48.198l.083-.144c-.067.02-.133.04-.199.062l.116.082zM30.22 48.846a1.604 1.604 0 0 1-.033-.04l-.098-.012c.017.033.034.068.052.1.023-.015.051-.03.078-.048zM31.137 48.24l-.043.17c.125-.01.252-.023.392-.036l-.057.216.206-.084c.045-.036.09-.072.134-.11-.077-.085-.153-.172-.24-.244-.116-.031-.24-.067-.39-.108l.026-.042c-.03-.002-.063.001-.095.004l.167.18-.1.054zM31.173 48.91a.82.82 0 0 0-.134-.008l.091.086c.015-.022.032-.04.048-.06l-.005-.018zM30.209 48.413l.514-.053.005-.051a98.296 98.296 0 0 1-.392-.013l-.127.117zM35.324 62.9l.042.084.066-.038-.032-.07-.076.024zM37.81 63.619l-.004.065.032-.03-.028-.035zM37.654 46.217c-.005-.077-.008-.156-.023-.233l-.15-.267.029-.002a.787.787 0 0 0-.166-.151c.052.158.07.218.072.224l-.08.04.069.314c.083.026.166.053.249.075zM37.799 64.537l.024.078.05-.064c-.02-.015-.039-.032-.058-.048-.006.01-.011.022-.016.034zM37.582 63.858c.018-.065.036-.124.054-.183l-.093.079c.01.034.021.067.039.104zM37.22 65.086a.16.16 0 0 1 .158.017l.051-.32-.135-.028c-.022.11-.052.22-.074.33zM37.435 64.176l.108-.004a.72.72 0 0 0-.127-.178l.019.182zM36.71 48.332c.041-.074.108-.142.168-.215l-.168-.19a1.93 1.93 0 0 0 0 .405zM36.922 47.164c-.015-.003-.027-.013-.041-.017l-.163.015.068-.057c-.076-.04-.15-.086-.225-.132.045.099.09.198.15.326l.36-.07-.005-.1-.092.009c-.02.018-.038.03-.052.026zM37.499 60.272c-.01.05-.02.099-.024.156l.193-.188-.17.032zM37.383 46.455c-.001.087-.004.174-.006.26.063-.038.118-.047.169-.032l-.015-.29h-.147l-.001.041.032.006-.032.015zM36.729 47.463l.152.338h-.136l.187.235a.342.342 0 0 0 .052-.185l.038.035-.22-.413a.97.97 0 0 0-.02-.021l-.053.01zM38.296 64.619l.003-.003-.007-.01a.093.093 0 0 0 .004.013zM37.594 47.648l-.01-.2-.163-.254-.029.033c-.032.112-.123.18-.31.202a20.588 20.588 0 0 0-.008-.147l-.1.226.62.14zM36.949 46.955a.632.632 0 0 0 .2-.37.43.43 0 0 0-.2.37zM35.176 63.503a28.35 28.35 0 0 1-.147-.094l.09.16c.018-.022.035-.043.057-.066zM35.225 63.067l-.034-.124-.212.069.05.17c.061-.037.127-.075.196-.115zM34.974 63.213c-.196-.147-.346-.058-.492.045l.353.036.14-.081zM37.727 64.951l.03.06.22-.16-.238-.084a9.933 9.933 0 0 0-.012.184zM37.174 60.481l-.102.239.136.07a1.012 1.012 0 0 0-.034-.309zM35.092 63.907l-.494.082.017.16.45-.041a.737.737 0 0 0 .027-.2zM37.315 61.389l-.044.031-.025.115.107-.046-.038-.1zM35 64.272a.465.465 0 0 1-.31.068c.044.075.076.16.1.25.08-.103.154-.207.21-.318zM36.133 63.055l.157.115c.082-.116.173-.227.258-.341-.097-.007-.163-.042-.205-.097l-.21.323zM36.172 61.696c.09.014.15.06.183.133l.286-.362-.146-.13c-.104.122-.218.238-.323.359zM35.758 62.982l-.002.024.105.103-.006-.146-.097.02zM34.864 64.851l-.008.033-.11.287c.345-.236.667-.433.653-1.005l-.548.64.013.045zM37.135 45.609l-.068-.078-.046.068.077.045.037-.035zM37.398 44.307l-.006-.022-.02.01.026.012zM47.71 49.665a.528.528 0 0 1-.057.008l.047.11.01-.118zM28.352 51.974c.048-.18-.056-.26-.169-.334l.073.259c.03.022.062.048.096.075zM28.603 52.05l-.108-.129-.105.082.135.106.078-.058zM28.709 52.18l-.038-.047-.048.054.045.035.04-.043zM47.953 50.095l-.186-.17-.11-.017c.055.158.174.176.296.187zM46.937 49.493l-.046-.125c-.09.024-.184.042-.276.064.053.045.077.09.08.136l.242-.075zM46.398 50.17c-.046-.046-.062-.095-.054-.147l-.3.063c.01.043.021.085.033.128.107-.018.215-.028.32-.045zM48.343 49.12l.018-.014.17-.1c-.285-.026-.543-.063-.753.235l.556-.093c.002-.01.006-.019.01-.028zM47.134 49.68a2.412 2.412 0 0 1-.02-.097c-.019.025-.036.05-.053.076l.062.031.01-.01zM47.346 49.857l-.051-.01a2.034 2.034 0 0 1-.009.051l.052.02.008-.061zM47.614 49.9c-.05-.007-.101-.016-.156-.025l-.027.078.146.055.037-.107zM28.44 52.917a6.292 6.292 0 0 0-.03-.082l-.215-.037.007.03.118.08c.037.001.074.001.12.009zM32.175 54.657l-.032-.026-.088.006.055.068.065-.048zM29.442 53.39a.74.74 0 0 1-.064.05l-.008.054c.055.01.114.015.177.01a.348.348 0 0 1-.049-.102 1.45 1.45 0 0 0-.056-.011zM29.795 53.437l-.112-.039c-.001.014 0 .026-.002.04h-.007l.015.037a.898.898 0 0 0 .104-.035l.002-.003zM30.524 53.464l.009.01.01-.007-.02-.003zM26.977 52.022l-.044.003.03.1.088.048-.074-.15zM31.008 52.957l.186.083-.07-.11c-.037.007-.074.013-.116.027zM47.854 49.504l.312.168.052-.089c-.08-.05-.162-.1-.272-.17a.419.419 0 0 0-.092.091zM48.246 49.454a.65.65 0 0 1 .039-.17c-.084.019-.166.04-.24.073a.36.36 0 0 1 .201.097zM29.033 53.258l-.123.002c.062.041.121.082.181.119a.936.936 0 0 0 .026-.033.704.704 0 0 0-.084-.088zM31.445 52.684c.035.007.068.007.102.012l.028-.111-.13.099zM51.23 69.95c-.036.013-.07.027-.105.042l.082.177.142-.06-.12-.16zM45.726 49.793l-.079-.023-.016.068.037.003c.02-.019.041-.034.058-.048zM51.205 69.009c-.109-.06-.216-.127-.323-.189.004.086-.019.147-.062.19l.302.148.083-.15z"/><path d="M52.361 70.456c-.017.055-.037.11-.065.169-.285-.047-.515-.003-.661.179.01.034.014.073.006.113-.03.002-.05-.004-.075-.006a.897.897 0 0 0-.082.261l-.005-.275c-.121-.043-.178-.152-.234-.268l-.37-.274-.634-.07.238-.222-.122-.09-.267-.163-.195.354a5.75 5.75 0 0 0-.028-.24c-.214.372-.365.68-.06 1.06l.068-.25c.038.002.076.002.114.005-.018.143-.002.367-.052.434l.12.085.134-.143.057.28 3.393 2.43-.912-2.517-.6.404c-.016-.28-.023-.438-.031-.59.21-.041.37.343.557-.02l-.136-.375-.024.007c-.035-.084-.096-.192-.134-.278zM51.099 69.493h.022c.026-.035.051-.07.077-.103l-.126.02.027.083zM31.767 54.095l.12.05c.022-.046.046-.093.07-.139l-.093-.045-.097.134zM48.078 69.222l.117-.065a.89.89 0 0 0-.24-.126c.063.1.1.157.123.19zM27.279 52.57c.027.01.056.017.085.024a.44.44 0 0 0 .01-.02l-.095-.004z"/><path d="M51.383 70.152c-.107.187-.014.308.09.424l-.005-.311-.085-.113zM51.102 69.781l-.057.036.029.063.068-.046c-.012-.017-.027-.034-.04-.053zM48.755 69.492l.018-.1-.09-.02v.047l.072.073zM45.174 50.26l-.181.012.108.056c.025-.02.049-.041.073-.069z"/><path d="M47.784 69.215l.06-.054-.453-.322c.027-.016.069-.04.119-.071l-.023-.056.01-.004-.682-.261.04-.12c.22.074.44.146.662.218a2.4 2.4 0 0 0-.197-.362 2.586 2.586 0 0 1-.534-.181l.045-.161.266.012a2.788 2.788 0 0 1-.306-.513l-6.901-5.092V54.05l9.146 13.333a.81.81 0 0 0 .09-.34l.062.562.353.515.011-.004a59.432 59.432 0 0 1-.188-.323c.073 0 .134.002.198.003.12-.286-.304-.45-.226-.714.455.007.278.525.62.701-.02.007-.038.012-.057.02l.546.008-.626.705.207.102.35-.023-.018-.048c-.096-.096-.113-.226-.03-.428.117.056.217.106.31.153.045-.101.09-.202.163-.372.083.443.158.797.654.887l-.112-.234.09-.07c.09.134.285.322.248.392-.099.195-.293.34-.45.505.081.039.162.08.25.107l.353-.003c-.006.01-.01.02-.015.031a.876.876 0 0 0 .233-.08l-.002-.008-.252-.048.026-.576-4.013-11.072 13.967-10.247-17.065.577-5.04-17.103-5.256 17.103-.974-.037c-.052.499-.022.907.338 1.199l.032.001a98.78 98.78 0 0 1-.019-.368l.126-.064c.022.132.07.302.098.444l.248.013.015-.047.023.05 1.266.071 3.598 4.006-4.02-1.127-.077.036-.018-.063-.289-.081-.073.079c-.03-.039-.058-.081-.086-.123l-.694-.195c-.25.053-.45.278-.576.753l.115-.882-.42-.118c.009.297.217.587.087.872-.379-.118-.263-.565-.324-.938l-10.615-2.976 6.781.384c-.082-.338-.215-.592-.583-.676l.113.263-.084.077c-.09-.15-.282-.364-.249-.441.054-.128.142-.236.235-.34l-.362-.015-.012.619c-.155-.139-.319-.287-.483-.432l.26-.18v-.016l-.303-.011-.22.044.01-.052-.266-.01-.397.212-.058-.125.163-.099-9.442-.357L31.609 57.66l-5.976 16.165 10.988-7.989c-.02-.07-.04-.141-.062-.213l.218.1.113-.083c-.022 0-.043.002-.068 0l.043-.276-.322-.036c.319-.17.572-.31.524-.712l-.153.14a3.274 3.274 0 0 1-.075-.051c.08-.1.179-.296.241-.285.156.027.3.124.448.202-.063-.114-.125-.23-.206-.38l-.46.12.174-.469.19.172.062-.018-.208-.394.163-.011c-.15-.167-.293-.323-.434-.478l.07-.071.397.395a2.721 2.721 0 0 0-.044-.591c-.338.05-.6.174-.728.586l.28-.095.068.111c-.164.084-.403.28-.478.229-.206-.139-.344-.38-.508-.581-.055.086-.112.173-.156.268l-.045.402-.033-.022c.004.087.022.183.061.29l.096-.294.836.14-.499.506-.147-.333-.09-.014.04.633-.218-.08.287.874a7.057 7.057 0 0 0-.133.05l-.285-.744c-.272.516-.3 1.063-.545 1.522l-.183-.056.04-.515c-.056-.095-.14-.238-.229-.386l-.09.235.063-.008c-.121.15-.243.298-.38.469-.346.015-.352-.182-.158-.503a5.164 5.164 0 0 0-.116-.003l-.337.552-.24.027-.319.726-.438-.403.095.426-.636.052-.031.142.53-.007c-.373.292-.587.208-.802.016.255-.405.273-.734-.156-.911l.864.167.619-.263a2.621 2.621 0 0 0-.009-.064c-.204.045-.41.09-.673.15l.588-1.037.302.809 1.253-1.058c-.005-.004-.01-.009-.016-.012l.014-.021-.074-.102c-.213.168-.448.317-.632.51-.24.252-.42.289-.633.077l.303-.255-.249-.264c.443.049.8.08 1.145-.371l-.27.04a57.986 57.986 0 0 1-.017-.108c.099-.027.23-.081.332-.113a1.5 1.5 0 0 1-.181-.097c.092-.317.073-.586-.111-.776a.253.253 0 0 1-.129-.009c.002-.033.011-.056.017-.084a1.02 1.02 0 0 0-.284-.13l.312.033c.114-.229.424-.208.637-.36l.225-.96.632.87.224-.284-.008-.223a2.251 2.251 0 0 1-.065.021l.042-.12c-.135.106-.292.092-.512-.059l.246-.311-.375-.27c.514.013.925.015 1.145-.516l-.287.068a14.587 14.587 0 0 0-.058-.117c.171-.068.427-.241.497-.184.174.142.286.362.413.563l.011-.615-.655-.173.543-.458.117.345.089.022.016-.634.21.099-.205-.896.137-.038.216.767c.318-.489.396-1.03.683-1.465l.176.073-.087.509.248.523c-.33.2-.667.323-.819.682a.47.47 0 0 1 .336-.057l.358-.348.11.11c-.078.106-.172.203-.263.302.034.014.068.03.103.047-.094.483.04.84.597.947l-1.034-.012-.267.19.028.157.391-.169-.03.225c.306.177.55-.283.837-.159-.07.516-.631.244-.877.608a3.823 3.823 0 0 0-.014-.068l-.085.619-.71-.808c-.051.077-.096.146-.144.222l-.023.398.057-.012c.121-.096.27-.097.488.025l-.069.106c.03.084.06.17.1.278l.331.235c-.133.236-.297.428-.266.701a.329.329 0 0 1 .186-.151l.1-.337.105.029c-.012.092-.035.184-.057.276.026-.003.052-.006.08-.007.109.329.314.501.691.374l-.637.35-.098.21.071.085.182-.238.058.148c.249.002.24-.364.459-.388.126.318-.243.366-.314.621l1.191-.866 7.98 5.713c-.01-.102-.022-.2-.033-.303l.311.083zM35.92 48.425l-.457-.287.35-.18c.09.127-.15.358.24.337l-.133.13zm1.43 1.35c-.19-.077-.379-.154-.648-.261l.406-.31c.143.142-.11.491.383.375l-.14.195zm1.401-3.187l-.773-.252c-.005.096-.009.182-.012.274l.104.132.03-.042.028.093c.035-.126.138-.186.34-.192l-.013.3.35-.001c-.322.22-.574.402-.474.826l.146-.17.087.046c-.074.118-.155.339-.223.335-.17-.01-.336-.096-.503-.161l.266.381.478-.185-.13.523-.225-.16c-.02.01-.043.018-.064.026l.27.397-.172.033.523.458a4.115 4.115 0 0 0-.067.085l-.473-.376c.022.442.214.809.23 1.203l-.14.034c-.052-.106-.105-.212-.172-.351l-.384-.21c.113-.27.266-.495.2-.784a.359.359 0 0 1-.182.185l-.065.373-.116-.018c0-.1.015-.201.027-.302a1.53 1.53 0 0 1-.084.016c-.157-.338-.397-.497-.786-.314l.64-.453c.02-.065.048-.147.078-.236l-.086-.083-.166.278-.08-.151a.214.214 0 0 0-.106.042l.027.035-.062.056-.026-.03c-.089.124-.115.316-.264.361.005.089.006.177-.006.264l-.112.007-.083-.29-.262-.213c.122-.189.269-.34.258-.568a.28.28 0 0 1-.163.116l-.1.275-.085-.03c.014-.076.039-.151.062-.226h-.066c-.073-.277-.234-.431-.555-.346l.548-.257.092-.168-.054-.075-.164.188a9.811 9.811 0 0 1-.04-.126c-.207-.015-.218.29-.402.297-.094-.289.271-.288.309-.543l.024.032-.112-.347c.22.094.383.162.578.244l.02-.153-.09-.216-.026.022c-.04.08-.119.12-.264.11l.03-.23-.27-.022c.262-.148.468-.271.418-.604l-.123.12-.064-.04c.065-.086.142-.25.194-.243.144.02.278.113.415.177.007-.06.015-.12.014-.181l-.078-.223.023.003a.614.614 0 0 0-.106-.138l.025.18-.476.139.134-.394.162.138.051-.016-.182-.323.135-.014-.372-.386.057-.061.339.32c.012-.342-.112-.637-.099-.941l.11-.017.11.281.219.145-.013-.147a.373.373 0 0 1-.03.02c.025-.109.052-.218.08-.343.152-.082.21-.014.212.14l.04.066.02-.01c.013-.117.025-.235.038-.376l.12-.075-.016-.464.333.101-.159-.2.322-.19a5.646 5.646 0 0 1-.019-.082l-.277.138c.122-.249.256-.26.418-.212-.003.02 0 .034 0 .053l.381.045-.248-.22.368-.315-.044-.101-.322.24c.1-.345.268-.389.484-.367.023.362.159.572.5.49l-.604.282-.262.436a.67.67 0 0 0 .034.036l.346-.391.099.897-.544-.361-.284 1.145.101.078c.055-.187.125-.372.151-.56.036-.263.13-.366.355-.33l-.073.29c.073.015.147.028.27.051-.294.168-.527.309-.538.738l.148-.144c.019.019.039.038.057.058-.048.061-.104.152-.153.218.048-.01.099-.018.155-.022.083.236.214.392.412.427a.197.197 0 0 1 .082-.053c.015.022.018.04.028.06a.774.774 0 0 0 .231-.048l-.206.12c.032.19-.168.316-.23.504l.288.69zm-.146-1.757c-.13-.153.154-.478-.347-.408l.157-.181.622.319c-.205.128-.322.2-.432.27zm-.253 18.55c-.116-.145.153-.441-.313-.386l.15-.166.571.31-.408.242zm-4.313-10.737c.266-.027.353.724.71-.079l.05.42-.856.571c.045-.434.07-.678.096-.912zm-6.652-1.81l.156.487c-.18.088-.425-.267-.48.237l-.136-.197.46-.527zm4.093 4.364l.408-.639-.24.06.083-.166h-.003l-.294.066.021.039c.095.068.127.177.084.362l-.287-.089-.087.34c-.131-.368-.243-.659-.678-.669l.127.185-.067.073c-.095-.103-.287-.237-.265-.301.038-.12.117-.226.198-.333-.06-.046-.106-.09-.099-.123.004-.02.013-.037.019-.056-.01-.013-.02-.025-.028-.038h-.002l-.127.021.065.306-.181-.076c.02.164.037.326.06.523l-.472-.258.21-.177a3.744 3.744 0 0 1-.008-.069l-.451.163.012-.176-.574.391-.065-.086.481-.364c-.042-.009-.083-.01-.125-.015l-.175.147a12.264 12.264 0 0 1-.073-.08l.093-.086c-.327-.021-.639.02-.94-.046l.003-.144.383-.08a.09.09 0 0 1 .009-.008c-.11.007-.218.01-.327-.003l-.011-.145.312-.097-.34-.146a.317.317 0 0 1-.02-.152l-.29-.123.155-.16-.007-.001-.03-.076-.375.178c0-.037-.002-.093-.005-.176l-.533.447a12.261 12.261 0 0 1-.073-.08l.443-.409c-.439-.047-.83.086-1.222.042l-.011-.145.373-.116.206-.27c-.063.002-.126.002-.19.003a.65.65 0 0 1 .023.042l-.436-.137c-.108-.239.03-.298.31-.252a6.294 6.294 0 0 0-.031-.082c-.151-.027-.302-.052-.483-.083l-.085-.162-.6-.021.161-.422-.273.187L24.92 51l-.108.018.153.372c-.31-.181-.31-.355-.235-.561.355.066.592-.013.596-.366l.124.657.359.362.043-.024-.294-.433.892.125-.483.44.725.389a.364.364 0 0 1 .003-.147c-.032-.016-.062-.036-.095-.05-.245-.099-.321-.215-.232-.424l.264.142.115-.25c.054.195.106.365.225.497.214-.012.346-.123.35-.386.025.133.05.27.078.412a.424.424 0 0 0 .1-.25l.022.25c.23-.028.4-.114.478-.289a.195.195 0 0 1-.03-.093c.024-.009.042-.008.064-.012a.784.784 0 0 0 .01-.236l.065.229c.193.016.265.24.432.348.29-.043.502-.076.737-.11l-.434.689.135.04-.057-.081.295-.337.004-.033.019.006.143-.162.072.226.054.016.084-.34c.104.284.198.521.438.617a.76.76 0 0 0 .01-.21l.063.23c.015 0 .024.01.037.013a.802.802 0 0 0 .135.014l-.128-.184.066-.074c.096.102.289.234.268.299a.757.757 0 0 1-.075.16c.039.044.08.087.13.119l.098-.015-.059-.49.474.255c-.07.06-.14.118-.21.179l.004.025.212-.032.244-.09-.011.176.571-.396.066.086-.325.248.056.143c.353.03.688-.02 1.01.047l-.002.145-.381.081a.406.406 0 0 1-.014.014c.1.09.225.19.208.242-.044.14-.14.264-.233.388.01.011.018.022.029.033l.36-.136-.062-.51.474.254-.21.18.01.068.45-.166c-.003.037-.007.093-.011.176l.57-.396.066.086-.478.367c.432.088.834-.009 1.22.071l-.002.145-.382.082-.297.32c-.057-.043-.111-.087-.164-.131l-.142.087.076.035-.046.108c-.056-.015-.11-.038-.165-.059l-.17.106c.422.13.831.074 1.206.192l-.016.144-.388.043-.328.29-.056-.055-.187.257-.06-.141c-.087-.034-.171-.078-.255-.12a1.286 1.286 0 0 1-.014.086c-.37.032-.602.204-.563.632l-.194-.71a.467.467 0 0 1-.145-.152c-.022-.017-.039-.03-.062-.05l-.108.054.204.25c-.062.01-.115.016-.17.024-.064.262.32.343.29.579-.389.056-.308-.41-.624-.514l.046-.024c-.165.025-.311.046-.468.068zm2.35.268l-.465.522-.152-.488c.18-.086.423.27.481-.233l.136.199zm.005 9.13l-.308.073-.419-.824.672.047c.02.264-.534.39.055.704zm-5.61 5.476L33.05 57.01l6.192-2.958zm10.536-9.696c-.043-.261.496-.44-.12-.697l.301-.1.492.782-.673.015zm10.008 2.769l-.413-.312-.208.316c-.122-.322-.264-.524-.246-.71.013-.126.25-.23.376-.335l.491 1.04zm-.697-1.268l-.532.362-.123-.473c-.188.621-.108.835.297.911l-.335.194-.457-.813.183-.078.01-.099-.849-.155.58-.25.007-.095h-.75c0-.02.002-.04.003-.059l.582-.2a16.557 16.557 0 0 1-.038-.139l-.967-.077c.25-.315.243-.496-.182-.471.115-.16.315-.312.31-.459-.006-.222-.153-.44-.272-.74-.109.214-.139.308-.2.37-.018.02-.171-.036-.18-.077a.335.335 0 0 1 .049-.24c.085-.124.198-.228.266-.304H44.28c.001-.031.003-.063.003-.095l.513-.295-.067-.114-.18.146-.137-.403-.11.193-.451-.48.621-.053c.05-.004.117.016.15-.009.463-.37.678-.328 1.027.208-.38-.034-.38-.034-.433.322l.238-.13v.506l.467-.75.112.039c-.04.17-.082.34-.13.533l.501-.153c.327.183-.134.53-.06.818l.462-.177-.288-1.17.129-.027.063.375.383-.054-.303.42.09.078.466-.095a527 527 0 0 1-.15.463l-.303.785c.37.219.402-.142.532-.429.236.327.097.48-.27.63l.64.08c-.143.149-.27.281-.404.423-.179-.387-.483-.376-.757-.043.339.1.712.171 1.044.332.09.044.05.354.078.615l-.475-.183-.222.324c.427-.196.743-.145 1.011.262zm-1.45-4.903l-6.731-3.572 18.36-4.835zm2.21-7.285l.203.095-.075.6-.364-.312c.089-.143.452.028.236-.383zm-4.796-.232l.389.28c-.076.152-.45.013-.198.406l-.209-.077.018-.609zm.176 1.316l.06-.373c.262.04.5.12.724.003a.377.377 0 0 1-.213-.116c-.118.01-.227.017-.336.025a4.8 4.8 0 0 1-.02-.103c.084-.02.175-.03.264-.042-.014-.022-.028-.044-.04-.067.237-.207.297-.445.02-.738l.584.447.225.017.043-.091a59.34 59.34 0 0 0-.286-.081c.036-.037.068-.069.103-.101-.108-.222-.421-.091-.537-.277.235-.233.451.145.73.064l-.018.04.283-.278.097.715.166-.051.165-.194-.038-.018c-.105-.004-.19-.067-.268-.221l.25-.077-.137-.29c.304.202.55.358.857.15l-.195-.07.004-.086c.125.027.335.03.359.087.064.159.05.341.067.513.065-.02.13-.04.191-.07.054-.054.11-.114.179-.185l.01.025a.615.615 0 0 0 .077-.174 14.89 14.89 0 0 0-.166.11l-.423-.429.476-.045-.042.233.046.045.218-.34.093.133.169-.566.095.03-.121.5c.351-.146.575-.413.89-.542l.082.107-.22.245-.016.295.14-.082a1.24 1.24 0 0 1-.038-.022l.396-.077c.201.14.13.242-.102.324.02.017.043.034.065.05l.401-.137.147.089.458-.234.096.393.108-.258.382.244.072-.058-.304-.223c.323.01.413.144.461.334-.299.097-.434.258-.258.532-.134-.144-.269-.286-.428-.455-.112-.032-.282-.08-.451-.13l-.02.037c.133.064.267.129.44.21l-.73.278.137-.542-1.116.005.004.013a.048.048 0 0 1-.016.004c0 .028.002.056.004.084.184.005.375.03.553.01.233-.026.35.032.39.231h-.27c.01.066.023.132.041.24-.233-.213-.425-.38-.792-.298l.168.095-.03.061c-.068-.028-.162-.056-.233-.084.023.039.046.081.066.127-.173.122-.265.267-.233.443.027.014.05.033.07.06-.013.016-.027.023-.041.035.025.06.06.12.112.187l-.165-.15c-.152.068-.32-.075-.499-.088l-.494.394-.027-.714-.237.049-.08.117.045.017c-.022.015-.047.029-.07.043.118.004.202.078.27.25l-.259.053.11.298c-.286-.227-.52-.403-.848-.226l.19.088-.012.084c-.123-.038-.334-.06-.353-.118-.044-.148-.023-.307-.02-.464l-.24.309.306.367-.484.002.065-.226-.042-.049c-.08.101-.16.201-.25.317a12.05 12.05 0 0 0-.083-.141l-.224.543-.093-.038c.058-.161.114-.322.17-.483-.367.113-.617.355-.946.455a8.235 8.235 0 0 0-.073-.113l.243-.221zM39.53 35.649l4.32 13.423-4.32 3.97zM51.973 69.976l.124.422a7.08 7.08 0 0 1 .137-.032l-.084-.388a.656.656 0 0 0-.177-.002z"/><path d="M27.213 52.472a15.418 15.418 0 0 0-.044-.116l-.023.003-.113.002.015.05c-.023-.017-.04-.033-.06-.05l-.074.001c.112.076.218.148.334.196.018-.05.033-.09.05-.132l-.085.046zM44.867 50.137c.02-.005.039-.012.058-.018a1.918 1.918 0 0 0-.041-.019l-.017.037zM48.43 69.666l-.44-.307-.263.232.133.094c.178-.043.376-.023.57-.019zM45.464 50.189a.586.586 0 0 0-.099.172l.15-.078-.051-.094zM51.547 70.083l.129-.094c-.021-.014-.041-.027-.063-.044l-.066.138z"/></g><path d="M47.057 61.617l.222-.324.475.182c-.028-.26.011-.57-.078-.614-.332-.16-.705-.232-1.044-.333.274-.332.578-.343.757.043.135-.14.261-.274.403-.423l-.638-.078c.366-.15.505-.304.269-.63-.13.286-.161.646-.532.428.11-.287.207-.536.304-.785l.149-.464-.467.096-.089-.079.303-.419-.383.054-.063-.375-.129.026.288 1.171-.462.176c-.074-.288.387-.634.06-.818l-.5.154.13-.533-.113-.04-.467.75v-.506l-.238.13c.053-.355.053-.355.433-.32-.35-.537-.564-.58-1.028-.21-.032.026-.099.006-.149.01l-.621.052.451.48.11-.192c.053.155.09.268.137.403l.18-.146.067.113c-.17.1-.342.198-.513.296l-.003.095h1.192c-.068.075-.18.18-.266.303a.337.337 0 0 0-.05.24c.01.042.163.097.181.078.061-.063.091-.156.2-.37.119.3.266.518.273.74.004.147-.196.298-.311.458.424-.024.432.157.182.471l.967.078.038.138-.583.2c0 .02 0 .04-.002.06h.75a3.816 3.816 0 0 1-.007.095l-.58.25.85.155-.011.099-.183.078.457.813.335-.194c-.405-.077-.485-.29-.297-.91l.123.472.532-.362c-.265-.41-.581-.46-1.01-.262zM47.901 62.44c-.018.185.124.388.246.71.08-.124.138-.21.208-.316.1.074.222.167.413.311l-.491-1.04c-.126.104-.363.208-.376.335z" fill="#fff"/><g fill="#e0b846" fill-rule="nonzero"><path d="M143.27 74.492v5.178h-1.436V67.673h3.205c.977 0 1.731.294 2.264.882.533.587.8 1.43.8 2.53 0 .626-.124 1.173-.372 1.64a2.672 2.672 0 0 1-1.071 1.095c.514.204.886.549 1.114 1.036.229.487.343 1.088.343 1.803v1.047c0 .37.032.712.096 1.028.064.316.173.565.33.746v.19h-1.48c-.16-.182-.263-.455-.307-.821a9.534 9.534 0 0 1-.067-1.16v-1.017c0-.671-.131-1.203-.393-1.594-.262-.39-.621-.586-1.079-.586zm0-1.27h1.699c.58 0 1.008-.183 1.284-.55s.414-.885.414-1.557c0-.688-.135-1.222-.404-1.602-.269-.38-.677-.57-1.224-.57h-1.769zM155.614 77.015l.14.7h.044l.148-.692 2.101-9.358h1.522l-3.1 12.005h-1.386l-3.092-12.005h1.529zM171.123 74.492v5.178h-1.436V67.673h3.205c.977 0 1.731.294 2.264.882.533.587.8 1.43.8 2.53 0 .626-.124 1.173-.372 1.64a2.672 2.672 0 0 1-1.071 1.095c.513.204.885.549 1.114 1.036.229.487.343 1.088.343 1.803v1.047c0 .37.032.712.096 1.028s.173.565.33.746v.19h-1.48c-.16-.182-.263-.455-.308-.821a9.534 9.534 0 0 1-.067-1.16v-1.017c0-.671-.13-1.203-.392-1.594-.262-.39-.622-.586-1.08-.586zm0-1.27h1.698c.58 0 1.008-.183 1.284-.55s.414-.885.414-1.557c0-.688-.134-1.222-.403-1.602-.269-.38-.677-.57-1.224-.57h-1.769zM186.063 74.088h-3.82V78.4h4.428v1.27h-5.865V67.665h5.823v1.27h-4.386v3.883h3.82v1.27zM195.619 76.644c0-.566-.137-1.03-.41-1.393-.274-.363-.753-.682-1.437-.957-.98-.346-1.733-.797-2.256-1.355s-.786-1.294-.786-2.21c0-.945.292-1.72.874-2.327.583-.607 1.331-.91 2.246-.91.953 0 1.72.35 2.303 1.051.583.7.864 1.546.846 2.535l-.015.05h-1.379c0-.7-.154-1.27-.464-1.709-.308-.439-.743-.658-1.305-.658-.532 0-.944.183-1.234.549-.29.365-.435.831-.435 1.398 0 .51.156.941.467 1.29.311.349.825.666 1.542.952.939.341 1.653.806 2.144 1.395.49.59.736 1.351.736 2.287 0 .985-.29 1.766-.87 2.344-.581.578-1.343.867-2.286.867-.92 0-1.723-.317-2.409-.952-.687-.635-1.017-1.53-.994-2.684l.014-.05h1.38c0 .822.184 1.43.555 1.825s.855.591 1.453.591c.538 0 .96-.174 1.264-.523.304-.35.456-.818.456-1.406zM208.054 75.325c0 1.424-.316 2.533-.948 3.327-.632.794-1.479 1.192-2.54 1.192-1.047 0-1.88-.398-2.497-1.192-.618-.794-.927-1.903-.927-3.327v-3.298c0-1.418.31-2.529.93-3.331.62-.802 1.451-1.204 2.494-1.204 1.056 0 1.902.402 2.536 1.204.634.803.952 1.913.952 3.331v3.298zm-1.43-3.323c0-1.045-.178-1.837-.537-2.379-.358-.541-.865-.812-1.521-.812-.646 0-1.142.27-1.486.812-.344.542-.516 1.334-.516 2.379v3.323c0 1.056.173 1.855.52 2.4.347.544.84.815 1.482.815.66 0 1.168-.27 1.525-.811.356-.542.534-1.343.534-2.404zM214.036 74.492v5.178H212.6V67.673h3.205c.977 0 1.731.294 2.264.882.533.587.8 1.43.8 2.53 0 .626-.124 1.173-.372 1.64a2.672 2.672 0 0 1-1.071 1.095c.514.204.886.549 1.114 1.036.229.487.343 1.088.343 1.803v1.047c0 .37.032.712.096 1.028.064.316.173.565.33.746v.19h-1.48c-.16-.182-.263-.455-.307-.821s-.067-.753-.067-1.16v-1.017c0-.671-.131-1.203-.393-1.594-.262-.39-.621-.586-1.079-.586zm0-1.27h1.699c.58 0 1.008-.183 1.284-.55s.414-.885.414-1.557c0-.688-.135-1.222-.404-1.602-.269-.38-.677-.57-1.224-.57h-1.769zM229.118 68.935h-2.646V79.67h-1.436V68.935h-2.632v-1.27h6.714zM237.853 76.644c0-.566-.137-1.03-.41-1.393-.274-.363-.753-.682-1.437-.957-.981-.346-1.733-.797-2.257-1.355s-.785-1.294-.785-2.21c0-.945.291-1.72.873-2.327.583-.607 1.332-.91 2.247-.91.952 0 1.72.35 2.303 1.051.582.7.864 1.546.845 2.535l-.014.05h-1.38c0-.7-.154-1.27-.463-1.709-.309-.439-.744-.658-1.305-.658-.533 0-.944.183-1.234.549-.29.365-.435.831-.435 1.398 0 .51.155.941.466 1.29.312.349.826.666 1.543.952.938.341 1.653.806 2.144 1.395.49.59.735 1.351.735 2.287 0 .985-.29 1.766-.87 2.344-.58.578-1.342.867-2.285.867-.92 0-1.723-.317-2.41-.952-.686-.635-1.017-1.53-.993-2.684l.013-.05h1.38c0 .822.185 1.43.555 1.825s.855.591 1.454.591c.538 0 .96-.174 1.263-.523.305-.35.457-.818.457-1.406z"/></g></g></svg>